<?xml version="1.0" encoding="UTF-8" standalone="no"?>
<!DOCTYPE svg PUBLIC "-//W3C//DTD SVG 1.1//EN"
 "http://www.w3.org/Graphics/SVG/1.1/DTD/svg11.dtd">
<!-- Generated by graphviz version 8.0.3 (20230416.2022)
 -->
<!-- Title: Tree Pages: 1 -->
<svg width="862pt" height="477pt"
 viewBox="0.00 0.00 862.00 477.00" xmlns="http://www.w3.org/2000/svg" xmlns:xlink="http://www.w3.org/1999/xlink">
<g id="graph0" class="graph" transform="scale(1 1) rotate(0) translate(4 473)">
<title>Tree</title>
<polygon fill="white" stroke="none" points="-4,4 -4,-473 858,-473 858,4 -4,4"/>
<!-- 0 -->
<g id="node1" class="node">
<title>0</title>
<polygon fill="#f4c9aa" stroke="black" points="527,-469 327,-469 327,-401 527,-401 527,-469"/>
<text text-anchor="middle" x="427" y="-453.8" font-family="Helvetica,sans-Serif" font-size="14.00">Cr_Last_EOP &lt;= 10.685</text>
<text text-anchor="middle" x="427" y="-438.8" font-family="Helvetica,sans-Serif" font-size="14.00">squared_error = 312908.883</text>
<text text-anchor="middle" x="427" y="-423.8" font-family="Helvetica,sans-Serif" font-size="14.00">samples = 2860</text>
<text text-anchor="middle" x="427" y="-408.8" font-family="Helvetica,sans-Serif" font-size="14.00">value = 795.774</text>
</g>
<!-- 1 -->
<g id="node2" class="node">
<title>1</title>
<polygon fill="#efb388" stroke="black" points="414,-365 222,-365 222,-297 414,-297 414,-365"/>
<text text-anchor="middle" x="318" y="-349.8" font-family="Helvetica,sans-Serif" font-size="14.00">Cr_Last_EOP &lt;= 0.129</text>
<text text-anchor="middle" x="318" y="-334.8" font-family="Helvetica,sans-Serif" font-size="14.00">squared_error = 295878.42</text>
<text text-anchor="middle" x="318" y="-319.8" font-family="Helvetica,sans-Serif" font-size="14.00">samples = 1703</text>
<text text-anchor="middle" x="318" y="-304.8" font-family="Helvetica,sans-Serif" font-size="14.00">value = 1003.0</text>
</g>
<!-- 0&#45;&gt;1 -->
<g id="edge1" class="edge">
<title>0&#45;&gt;1</title>
<path fill="none" stroke="black" d="M391.31,-400.6C381.81,-391.71 371.43,-382 361.56,-372.76"/>
<polygon fill="black" stroke="black" points="364.46,-370.75 354.77,-366.47 359.68,-375.86 364.46,-370.75"/>
<text text-anchor="middle" x="354.6" y="-386.76" font-family="Helvetica,sans-Serif" font-size="14.00">True</text>
</g>
<!-- 2 -->
<g id="node9" class="node">
<title>2</title>
<polygon fill="#fae9dc" stroke="black" points="636,-365 436,-365 436,-297 636,-297 636,-365"/>
<text text-anchor="middle" x="536" y="-349.8" font-family="Helvetica,sans-Serif" font-size="14.00">E3 &lt;= 5000.0</text>
<text text-anchor="middle" x="536" y="-334.8" font-family="Helvetica,sans-Serif" font-size="14.00">squared_error = 181732.706</text>
<text text-anchor="middle" x="536" y="-319.8" font-family="Helvetica,sans-Serif" font-size="14.00">samples = 1157</text>
<text text-anchor="middle" x="536" y="-304.8" font-family="Helvetica,sans-Serif" font-size="14.00">value = 490.756</text>
</g>
<!-- 0&#45;&gt;2 -->
<g id="edge8" class="edge">
<title>0&#45;&gt;2</title>
<path fill="none" stroke="black" d="M462.69,-400.6C472.19,-391.71 482.57,-382 492.44,-372.76"/>
<polygon fill="black" stroke="black" points="494.32,-375.86 499.23,-366.47 489.54,-370.75 494.32,-375.86"/>
<text text-anchor="middle" x="499.4" y="-386.76" font-family="Helvetica,sans-Serif" font-size="14.00">False</text>
</g>
<!-- 5 -->
<g id="node3" class="node">
<title>5</title>
<polygon fill="#f5ceb2" stroke="black" points="204,-253.5 4,-253.5 4,-200.5 204,-200.5 204,-253.5"/>
<text text-anchor="middle" x="104" y="-238.3" font-family="Helvetica,sans-Serif" font-size="14.00">squared_error = 487897.754</text>
<text text-anchor="middle" x="104" y="-223.3" font-family="Helvetica,sans-Serif" font-size="14.00">samples = 359</text>
<text text-anchor="middle" x="104" y="-208.3" font-family="Helvetica,sans-Serif" font-size="14.00">value = 746.142</text>
</g>
<!-- 1&#45;&gt;5 -->
<g id="edge2" class="edge">
<title>1&#45;&gt;5</title>
<path fill="none" stroke="black" d="M247.93,-296.6C222.21,-284.34 193.25,-270.54 168.08,-258.54"/>
<polygon fill="black" stroke="black" points="169.81,-255.01 159.27,-253.87 166.79,-261.33 169.81,-255.01"/>
</g>
<!-- 6 -->
<g id="node4" class="node">
<title>6</title>
<polygon fill="#eeac7d" stroke="black" points="414,-261 222,-261 222,-193 414,-193 414,-261"/>
<text text-anchor="middle" x="318" y="-245.8" font-family="Helvetica,sans-Serif" font-size="14.00">Cr_Last_EOP &lt;= 9.935</text>
<text text-anchor="middle" x="318" y="-230.8" font-family="Helvetica,sans-Serif" font-size="14.00">squared_error = 222257.14</text>
<text text-anchor="middle" x="318" y="-215.8" font-family="Helvetica,sans-Serif" font-size="14.00">samples = 1344</text>
<text text-anchor="middle" x="318" y="-200.8" font-family="Helvetica,sans-Serif" font-size="14.00">value = 1071.61</text>
</g>
<!-- 1&#45;&gt;6 -->
<g id="edge3" class="edge">
<title>1&#45;&gt;6</title>
<path fill="none" stroke="black" d="M318,-296.6C318,-288.85 318,-280.49 318,-272.35"/>
<polygon fill="black" stroke="black" points="321.5,-272.47 318,-262.47 314.5,-272.47 321.5,-272.47"/>
</g>
<!-- 7 -->
<g id="node5" class="node">
<title>7</title>
<polygon fill="#e58139" stroke="black" points="200,-149.5 0,-149.5 0,-96.5 200,-96.5 200,-149.5"/>
<text text-anchor="middle" x="100" y="-134.3" font-family="Helvetica,sans-Serif" font-size="14.00">squared_error = 208180.201</text>
<text text-anchor="middle" x="100" y="-119.3" font-family="Helvetica,sans-Serif" font-size="14.00">samples = 333</text>
<text text-anchor="middle" x="100" y="-104.3" font-family="Helvetica,sans-Serif" font-size="14.00">value = 1482.991</text>
</g>
<!-- 6&#45;&gt;7 -->
<g id="edge4" class="edge">
<title>6&#45;&gt;7</title>
<path fill="none" stroke="black" d="M246.62,-192.6C220.3,-180.29 190.65,-166.42 164.94,-154.38"/>
<polygon fill="black" stroke="black" points="166.83,-150.94 156.29,-149.87 163.86,-157.28 166.83,-150.94"/>
</g>
<!-- 8 -->
<g id="node6" class="node">
<title>8</title>
<polygon fill="#f1ba93" stroke="black" points="418,-157 218,-157 218,-89 418,-89 418,-157"/>
<text text-anchor="middle" x="318" y="-141.8" font-family="Helvetica,sans-Serif" font-size="14.00">Cr_Final &lt;= 11.525</text>
<text text-anchor="middle" x="318" y="-126.8" font-family="Helvetica,sans-Serif" font-size="14.00">squared_error = 152791.851</text>
<text text-anchor="middle" x="318" y="-111.8" font-family="Helvetica,sans-Serif" font-size="14.00">samples = 1011</text>
<text text-anchor="middle" x="318" y="-96.8" font-family="Helvetica,sans-Serif" font-size="14.00">value = 936.111</text>
</g>
<!-- 6&#45;&gt;8 -->
<g id="edge5" class="edge">
<title>6&#45;&gt;8</title>
<path fill="none" stroke="black" d="M318,-192.6C318,-184.85 318,-176.49 318,-168.35"/>
<polygon fill="black" stroke="black" points="321.5,-168.47 318,-158.47 314.5,-168.47 321.5,-168.47"/>
</g>
<!-- 11 -->
<g id="node7" class="node">
<title>11</title>
<polygon fill="#f2c19e" stroke="black" points="309,-53 109,-53 109,0 309,0 309,-53"/>
<text text-anchor="middle" x="209" y="-37.8" font-family="Helvetica,sans-Serif" font-size="14.00">squared_error = 131491.805</text>
<text text-anchor="middle" x="209" y="-22.8" font-family="Helvetica,sans-Serif" font-size="14.00">samples = 807</text>
<text text-anchor="middle" x="209" y="-7.8" font-family="Helvetica,sans-Serif" font-size="14.00">value = 871.419</text>
</g>
<!-- 8&#45;&gt;11 -->
<g id="edge6" class="edge">
<title>8&#45;&gt;11</title>
<path fill="none" stroke="black" d="M279.57,-88.68C269.03,-79.54 257.6,-69.64 247.08,-60.51"/>
<polygon fill="black" stroke="black" points="249.72,-57.3 239.87,-53.39 245.13,-62.59 249.72,-57.3"/>
</g>
<!-- 12 -->
<g id="node8" class="node">
<title>12</title>
<polygon fill="#eb9f69" stroke="black" points="527,-53 327,-53 327,0 527,0 527,-53"/>
<text text-anchor="middle" x="427" y="-37.8" font-family="Helvetica,sans-Serif" font-size="14.00">squared_error = 155004.936</text>
<text text-anchor="middle" x="427" y="-22.8" font-family="Helvetica,sans-Serif" font-size="14.00">samples = 204</text>
<text text-anchor="middle" x="427" y="-7.8" font-family="Helvetica,sans-Serif" font-size="14.00">value = 1192.025</text>
</g>
<!-- 8&#45;&gt;12 -->
<g id="edge7" class="edge">
<title>8&#45;&gt;12</title>
<path fill="none" stroke="black" d="M356.43,-88.68C366.97,-79.54 378.4,-69.64 388.92,-60.51"/>
<polygon fill="black" stroke="black" points="390.87,-62.59 396.13,-53.39 386.28,-57.3 390.87,-62.59"/>
</g>
<!-- 3 -->
<g id="node10" class="node">
<title>3</title>
<polygon fill="#fceee5" stroke="black" points="636,-261 436,-261 436,-193 636,-193 636,-261"/>
<text text-anchor="middle" x="536" y="-245.8" font-family="Helvetica,sans-Serif" font-size="14.00">Cr_Last_EOP &lt;= 11.145</text>
<text text-anchor="middle" x="536" y="-230.8" font-family="Helvetica,sans-Serif" font-size="14.00">squared_error = 132828.735</text>
<text text-anchor="middle" x="536" y="-215.8" font-family="Helvetica,sans-Serif" font-size="14.00">samples = 1065</text>
<text text-anchor="middle" x="536" y="-200.8" font-family="Helvetica,sans-Serif" font-size="14.00">value = 440.023</text>
</g>
<!-- 2&#45;&gt;3 -->
<g id="edge9" class="edge">
<title>2&#45;&gt;3</title>
<path fill="none" stroke="black" d="M536,-296.6C536,-288.85 536,-280.49 536,-272.35"/>
<polygon fill="black" stroke="black" points="539.5,-272.47 536,-262.47 532.5,-272.47 539.5,-272.47"/>
</g>
<!-- 4 -->
<g id="node13" class="node">
<title>4</title>
<polygon fill="#eeab7c" stroke="black" points="854,-253.5 654,-253.5 654,-200.5 854,-200.5 854,-253.5"/>
<text text-anchor="middle" x="754" y="-238.3" font-family="Helvetica,sans-Serif" font-size="14.00">squared_error = 373148.346</text>
<text text-anchor="middle" x="754" y="-223.3" font-family="Helvetica,sans-Serif" font-size="14.00">samples = 92</text>
<text text-anchor="middle" x="754" y="-208.3" font-family="Helvetica,sans-Serif" font-size="14.00">value = 1078.043</text>
</g>
<!-- 2&#45;&gt;4 -->
<g id="edge12" class="edge">
<title>2&#45;&gt;4</title>
<path fill="none" stroke="black" d="M607.38,-296.6C633.7,-284.29 663.35,-270.42 689.06,-258.38"/>
<polygon fill="black" stroke="black" points="690.14,-261.28 697.71,-253.87 687.17,-254.94 690.14,-261.28"/>
</g>
<!-- 9 -->
<g id="node11" class="node">
<title>9</title>
<polygon fill="#f9e0ce" stroke="black" points="636,-149.5 436,-149.5 436,-96.5 636,-96.5 636,-149.5"/>
<text text-anchor="middle" x="536" y="-134.3" font-family="Helvetica,sans-Serif" font-size="14.00">squared_error = 122495.337</text>
<text text-anchor="middle" x="536" y="-119.3" font-family="Helvetica,sans-Serif" font-size="14.00">samples = 579</text>
<text text-anchor="middle" x="536" y="-104.3" font-family="Helvetica,sans-Serif" font-size="14.00">value = 575.007</text>
</g>
<!-- 3&#45;&gt;9 -->
<g id="edge10" class="edge">
<title>3&#45;&gt;9</title>
<path fill="none" stroke="black" d="M536,-192.6C536,-182.36 536,-171.04 536,-160.6"/>
<polygon fill="black" stroke="black" points="539.5,-160.71 536,-150.71 532.5,-160.71 539.5,-160.71"/>
</g>
<!-- 10 -->
<g id="node12" class="node">
<title>10</title>
<polygon fill="#ffffff" stroke="black" points="846,-149.5 654,-149.5 654,-96.5 846,-96.5 846,-149.5"/>
<text text-anchor="middle" x="750" y="-134.3" font-family="Helvetica,sans-Serif" font-size="14.00">squared_error = 97571.326</text>
<text text-anchor="middle" x="750" y="-119.3" font-family="Helvetica,sans-Serif" font-size="14.00">samples = 486</text>
<text text-anchor="middle" x="750" y="-104.3" font-family="Helvetica,sans-Serif" font-size="14.00">value = 279.21</text>
</g>
<!-- 3&#45;&gt;10 -->
<g id="edge11" class="edge">
<title>3&#45;&gt;10</title>
<path fill="none" stroke="black" d="M606.07,-192.6C631.79,-180.34 660.75,-166.54 685.92,-154.54"/>
<polygon fill="black" stroke="black" points="687.21,-157.33 694.73,-149.87 684.19,-151.01 687.21,-157.33"/>
</g>
</g>
</svg>
